<?xml version="1.0" encoding="UTF-8"?>
<!DOCTYPE svg PUBLIC "-//W3C//DTD SVG 1.1//EN" "http://www.w3.org/Graphics/SVG/1.1/DTD/svg11.dtd">
<svg xmlns="http://www.w3.org/2000/svg" version="1.1" width="166px" height="184px" style="shape-rendering:geometricPrecision; text-rendering:geometricPrecision; image-rendering:optimizeQuality; fill-rule:evenodd; clip-rule:evenodd" xmlns:xlink="http://www.w3.org/1999/xlink">
<g><path style="opacity:0.972" fill="#006a08" d="M 73.5,-0.5 C 79.5,-0.5 85.5,-0.5 91.5,-0.5C 113.709,7.22387 123.209,22.8905 120,46.5C 114.49,65.1715 101.99,75.1715 82.5,76.5C 52.2916,71.7327 40.1249,54.3994 46,24.5C 51.2647,11.7293 60.4314,3.39593 73.5,-0.5 Z M 80.5,14.5 C 94.8907,15.5565 103.224,23.2232 105.5,37.5C 101.705,56.0597 90.7052,62.893 72.5,58C 60.1114,49.9567 56.9447,39.1234 63,25.5C 67.5938,19.632 73.4271,15.9654 80.5,14.5 Z"/></g>
<g><path style="opacity:0.969" fill="#016a08" d="M 165.5,168.5 C 165.5,171.5 165.5,174.5 165.5,177.5C 164.21,179.792 162.543,181.792 160.5,183.5C 158.5,183.5 156.5,183.5 154.5,183.5C 152.525,182.354 151.025,180.687 150,178.5C 148.253,134.754 125.586,111.42 82,108.5C 52.9321,109.022 32.2654,122.356 20,148.5C 16.8206,158.243 15.1539,168.243 15,178.5C 13.975,180.687 12.475,182.354 10.5,183.5C 8.5,183.5 6.5,183.5 4.5,183.5C 2.5,182.167 0.833333,180.5 -0.5,178.5C -0.5,174.167 -0.5,169.833 -0.5,165.5C 7.25526,119.421 34.5886,95.0881 81.5,92.5C 130.215,95.2248 158.215,120.558 165.5,168.5 Z"/></g>
</svg>
