<?xml version="1.0" encoding="UTF-8"?>
<!DOCTYPE svg PUBLIC "-//W3C//DTD SVG 1.1//EN" "http://www.w3.org/Graphics/SVG/1.1/DTD/svg11.dtd">
<svg xmlns="http://www.w3.org/2000/svg" version="1.1" width="234px" height="184px" style="shape-rendering:geometricPrecision; text-rendering:geometricPrecision; image-rendering:optimizeQuality; fill-rule:evenodd; clip-rule:evenodd" xmlns:xlink="http://www.w3.org/1999/xlink">
<g><path style="opacity:0.953" fill="#d96900" d="M 85.5,-0.5 C 87.5,-0.5 89.5,-0.5 91.5,-0.5C 95.7242,1.9593 97.2242,5.62597 96,10.5C 88.2935,24.7471 80.4602,38.9138 72.5,53C 101.833,53.6667 131.167,53.6667 160.5,53C 152.54,38.9138 144.706,24.7471 137,10.5C 135.776,5.62597 137.276,1.9593 141.5,-0.5C 143.5,-0.5 145.5,-0.5 147.5,-0.5C 148.688,0.363622 149.855,1.36362 151,2.5C 160.04,19.4133 169.206,36.2466 178.5,53C 195.167,53.3333 211.833,53.6667 228.5,54C 230.687,55.025 232.354,56.525 233.5,58.5C 233.5,60.5 233.5,62.5 233.5,64.5C 232.354,66.475 230.687,67.975 228.5,69C 223.365,68.9198 218.531,69.7532 214,71.5C 207.667,107.167 201.333,142.833 195,178.5C 193.975,180.687 192.475,182.354 190.5,183.5C 141.167,183.5 91.8333,183.5 42.5,183.5C 40.525,182.354 39.025,180.687 38,178.5C 31.6667,142.5 25.3333,106.5 19,70.5C 14.2512,69.6948 9.41789,69.1948 4.5,69C 2.31305,67.975 0.646381,66.475 -0.5,64.5C -0.5,62.5 -0.5,60.5 -0.5,58.5C 0.646381,56.525 2.31305,55.025 4.5,54C 21.1667,53.6667 37.8333,53.3333 54.5,53C 63.7937,36.2466 72.9604,19.4133 82,2.5C 83.1451,1.36362 84.3117,0.363622 85.5,-0.5 Z M 35.5,69.5 C 89.8344,69.3333 144.168,69.5 198.5,70C 192.403,102.076 186.57,134.243 181,166.5C 138.238,167.663 95.4043,167.83 52.5,167C 46.2597,134.628 40.5931,102.128 35.5,69.5 Z"/></g>
<g><path style="opacity:0.933" fill="#d96900" d="M 72.5,87.5 C 77.2797,86.6409 80.7797,88.3075 83,92.5C 83.6667,109.833 83.6667,127.167 83,144.5C 79.9867,149.535 75.8201,150.702 70.5,148C 69.2986,147.097 68.4652,145.931 68,144.5C 67.3333,127.167 67.3333,109.833 68,92.5C 69.025,90.313 70.525,88.6464 72.5,87.5 Z"/></g>
<g><path style="opacity:0.933" fill="#d96900" d="M 113.5,87.5 C 118.28,86.6409 121.78,88.3075 124,92.5C 124.667,109.833 124.667,127.167 124,144.5C 120.987,149.535 116.82,150.702 111.5,148C 110.299,147.097 109.465,145.931 109,144.5C 108.333,127.167 108.333,109.833 109,92.5C 110.025,90.313 111.525,88.6464 113.5,87.5 Z"/></g>
<g><path style="opacity:0.933" fill="#d96900" d="M 154.5,87.5 C 159.28,86.6409 162.78,88.3075 165,92.5C 165.667,109.833 165.667,127.167 165,144.5C 161.987,149.535 157.82,150.702 152.5,148C 151.299,147.097 150.465,145.931 150,144.5C 149.333,127.167 149.333,109.833 150,92.5C 151.025,90.313 152.525,88.6464 154.5,87.5 Z"/></g>
</svg>
