<?xml version="1.0" encoding="UTF-8"?>
<!DOCTYPE svg PUBLIC "-//W3C//DTD SVG 1.1//EN" "http://www.w3.org/Graphics/SVG/1.1/DTD/svg11.dtd">
<svg xmlns="http://www.w3.org/2000/svg" version="1.1" width="183px" height="183px" style="shape-rendering:geometricPrecision; text-rendering:geometricPrecision; image-rendering:optimizeQuality; fill-rule:evenodd; clip-rule:evenodd" xmlns:xlink="http://www.w3.org/1999/xlink">
<g><path style="opacity:0.949" fill="#da6800" d="M 4.5,-0.5 C 6.5,-0.5 8.5,-0.5 10.5,-0.5C 37.4384,25.938 64.2717,52.6047 91,79.5C 117.728,52.6047 144.562,25.938 171.5,-0.5C 173.5,-0.5 175.5,-0.5 177.5,-0.5C 179.5,0.833333 181.167,2.5 182.5,4.5C 182.5,6.5 182.5,8.5 182.5,10.5C 156.062,37.4384 129.395,64.2717 102.5,91C 129.395,117.728 156.062,144.562 182.5,171.5C 182.5,173.5 182.5,175.5 182.5,177.5C 181.167,179.5 179.5,181.167 177.5,182.5C 175.5,182.5 173.5,182.5 171.5,182.5C 144.562,156.062 117.728,129.395 91,102.5C 64.2717,129.395 37.4384,156.062 10.5,182.5C 8.5,182.5 6.5,182.5 4.5,182.5C 2.5,181.167 0.833333,179.5 -0.5,177.5C -0.5,175.5 -0.5,173.5 -0.5,171.5C 25.938,144.562 52.6047,117.728 79.5,91C 52.6047,64.2717 25.938,37.4384 -0.5,10.5C -0.5,8.5 -0.5,6.5 -0.5,4.5C 0.833333,2.5 2.5,0.833333 4.5,-0.5 Z"/></g>
</svg>
