<?xml version="1.0" encoding="UTF-8"?>
<!DOCTYPE svg PUBLIC "-//W3C//DTD SVG 1.1//EN" "http://www.w3.org/Graphics/SVG/1.1/DTD/svg11.dtd">
<svg xmlns="http://www.w3.org/2000/svg" version="1.1" width="179px" height="180px" style="shape-rendering:geometricPrecision; text-rendering:geometricPrecision; image-rendering:optimizeQuality; fill-rule:evenodd; clip-rule:evenodd" xmlns:xlink="http://www.w3.org/1999/xlink">
<g><path style="opacity:0.968" fill="#006a08" d="M 61.5,-0.5 C 69.8333,-0.5 78.1667,-0.5 86.5,-0.5C 120.153,6.98666 140.653,27.6533 148,61.5C 151.094,83.7032 145.928,103.703 132.5,121.5C 148.272,137.268 163.605,153.268 178.5,169.5C 178.5,170.5 178.5,171.5 178.5,172.5C 177.247,175.424 175.247,177.757 172.5,179.5C 171.167,179.5 169.833,179.5 168.5,179.5C 152.268,164.605 136.268,149.272 120.5,133.5C 98.7745,149.008 75.1079,152.841 49.5,145C 22.5578,134.228 5.89117,114.728 -0.5,86.5C -0.5,78.1667 -0.5,69.8333 -0.5,61.5C 7.16667,27.8333 27.8333,7.16667 61.5,-0.5 Z M 71.5,14.5 C 108.622,17.1209 129.289,36.9543 133.5,74C 129.699,109.801 109.866,129.634 74,133.5C 38.1993,129.699 18.366,109.866 14.5,74C 18.0857,39.25 37.0857,19.4167 71.5,14.5 Z"/></g>
</svg>
