<?xml version="1.0" encoding="UTF-8"?>
<svg width="421px" height="567px" viewBox="0 0 421 567" version="1.1" xmlns="http://www.w3.org/2000/svg" xmlns:xlink="http://www.w3.org/1999/xlink">
    <title>Untitled 3</title>
    <g id="Page-1" stroke="none" stroke-width="1" fill="none" fill-rule="evenodd">
        <g id="location_a" transform="translate(0.500000, 0.500000)" fill="#DA6900">
            <path d="M190,0 C203.333,0 216.667,0 230,0 C311.844,11.0149 370.01,54.0149 404.5,129 C412.363,148.787 417.53,169.12 420,190 C420,203.333 420,216.667 420,230 C417.502,251.653 412.002,272.653 403.5,293 C356.745,392.688 296.245,482.854 222,563.5 C220.185,564.257 218.519,565.09 217,566 C213.333,566 209.667,566 206,566 C200.842,563.361 196.342,559.695 192.5,555 C121.095,475.585 62.0947,387.585 15.5,291 C7.63705,271.213 2.47038,250.88 0,230 C0,216.667 0,203.333 0,190 C11.0149,108.156 54.0149,49.9897 129,15.5 C148.787,7.63705 169.12,2.47038 190,0 Z M198,35 C276.804,33.9606 333.97,68.294 369.5,138 C392.309,192.909 389.642,246.576 361.5,299 C321.416,380.559 271.416,455.225 211.5,523 C144.9,448.535 90.233,365.868 47.5,275 C23.6407,206.975 34.974,145.642 81.5,91 C113.399,57.9674 152.233,39.3008 198,35 Z" id="Shape" opacity="0.985"></path>
            <path d="M196,79 C257.448,75.2855 301.281,100.952 327.5,156 C345.51,207.958 335.677,253.791 298,293.5 C257.893,328.119 212.893,336.119 163,317.5 C120.778,297.93 95.9448,265.096 88.5,219 C84.3013,157.528 109.801,113.694 165,87.5 C175.248,83.8577 185.581,81.0244 196,79 Z M209,113 C176.766,115.731 151.933,130.731 134.5,158 C113.68,200.564 120.18,238.397 154,271.5 C188.662,297.257 224.662,299.257 262,277.5 C298.957,248.854 309.79,212.354 294.5,168 C277.249,132.443 248.749,114.11 209,113 Z" id="Shape" opacity="0.986"></path>
        </g>
    </g>
</svg>