<svg width="1052" height="1053" viewBox="0 0 1052 1053" fill="none" xmlns="http://www.w3.org/2000/svg">
<path d="M294 541.322H0V279.322H293L313.5 270.322C377.273 210.614 417.046 217.335 493 279.322H568.5L609 247.822H719.5L684 577.822L361 575.322L294 541.322Z" fill="#FFC58F"/>
<path d="M624 577.822C661.306 549.616 675.133 529.384 679 480.322C711.797 482.915 728.337 504.108 728.343 531.322C729.648 545.84 719.618 560.557 697.5 577.822H624Z" fill="#FFB067"/>
<path d="M644 490.822C681.306 462.616 695.133 442.384 699 393.322C731.797 395.915 748.337 417.108 748.343 444.322C749.648 458.84 735.618 479.057 713.5 496.322L644 490.822Z" fill="#FFB067"/>
<path d="M652 344.822C689.306 316.616 703.133 296.384 707 247.322C739.797 249.915 756.337 271.108 756.343 298.322C757.648 312.84 747.618 327.557 725.5 344.822H652Z" fill="#FFB067"/>
<path d="M652 425.822C689.306 397.616 703.133 377.384 707 328.322C739.797 330.915 756.337 352.108 756.343 379.322C757.648 393.84 747.618 408.557 725.5 425.822H652Z" fill="#FFB067"/>
<circle cx="222" cy="419.322" r="25" fill="#F3EBE3"/>
<circle cx="141.5" cy="351.822" r="41.5" fill="#F3EBE3"/>
<path d="M374 576.322C360.438 577.253 345.253 572.018 296 545.822C338.828 535.504 362.227 527.436 401.5 503.822C461.604 470.656 484.546 453.09 483 425.822C464.269 427.909 454.214 422.224 436.5 408.822L441 392.822C455.486 395.023 463.765 391.189 478.5 385.322C504.658 367.317 518.017 354.528 538.5 324.822C546.459 333.138 550.539 340.773 555 376.322L527.5 417.322L577 517.822C574.232 537.163 590.5 559.822 590.5 560.822C590.5 561.822 620.535 555.935 626 576.322H374Z" fill="#FFB067"/>
<path d="M837.559 910.749C804.112 914.123 777.155 928.078 752.059 955.749C716.461 869.216 689.163 805.874 676.059 758.249C665.322 689.261 688.059 641.749 753.559 627.249C819.5 609.322 859.825 638.123 884.059 688.249C912.402 777.528 920.728 866.914 929.059 925.249C905.642 911.133 877.405 906.905 837.559 910.749Z" fill="#FF8C3F"/>
<circle cx="16.5" cy="16.5" r="16.5" transform="matrix(-1 0 0 1 855.059 692.749)" fill="#FFC296"/>
<circle cx="25" cy="25" r="25" transform="matrix(-1 0 0 1 822.059 643.749)" fill="#FFC296"/>
<path d="M732.501 906.822L751.501 954.322C807.501 893.822 879.501 897.322 930.256 931.03C921.88 863.6 913.5 805.322 898 738.322C873.515 839.975 832.671 852.97 732.501 906.822Z" fill="#F76F01"/>
<path d="M759.567 741.414C738.575 746.58 677.059 762.249 677.059 762.249C673.844 749.485 672.847 742.251 673.559 729.249C673.559 729.249 729.999 715.045 752.779 710.397C775.559 705.749 780.559 736.249 759.567 741.414Z" fill="#DF6201"/>
<path d="M824.642 873.461C802.209 878.755 726.399 893.751 726.399 893.751L714.559 863.749C714.559 863.749 791.29 846.896 816.223 841.568C841.155 836.241 847.074 868.166 824.642 873.461Z" fill="#DF6201"/>
<path d="M803.559 775.249C826.059 770.249 902.059 756.249 902.059 756.249L908.559 787.749C908.559 787.749 836.559 802.249 811.559 807.249C786.559 812.249 781.059 780.249 803.559 775.249Z" fill="#DF6201"/>
<path d="M525.223 908.38C491.704 905.815 462.298 923.558 432.724 946.38C418 854.822 415.741 777.068 411.224 727.88C412.796 658.079 453.008 611.907 520.038 609.161C587.067 606.416 624.967 647.714 640 701.322C644.5 793.822 619.001 943.322 619.001 943.322C598.434 925.305 565.124 911.61 525.223 908.38Z" fill="#FF8C3F"/>
<circle cx="16.5" cy="16.5" r="16.5" transform="matrix(-0.984391 -0.175998 -0.175998 0.984391 596.292 693.13)" fill="#FFC296"/>
<circle cx="25" cy="25" r="25" transform="matrix(-0.984391 -0.175998 -0.175998 0.984391 546.018 646.122)" fill="#FFC296"/>
<path d="M424.999 889.823L431.999 943.822C497.773 894.123 575.468 901.708 619.499 943.822C630.264 876.446 638 797.322 640 728.322C602.099 836.844 537.469 868.111 424.999 889.823Z" fill="#F76F01"/>
<path d="M509.475 738.822C486.951 738.822 411.429 739.924 411.429 739.924C410.434 726.78 410.702 719.479 413.714 706.81C413.714 706.81 484.951 707.822 509.475 707.822C534 707.822 532 738.822 509.475 738.822Z" fill="#DF6201"/>
<path d="M525.5 870.416C502.485 871.68 424.108 870.416 424.108 870.416L420.025 838.504C420.025 838.504 498.019 839.361 523.5 838.504C548.98 837.648 548.514 869.152 525.5 870.416Z" fill="#DF6201"/>
<path d="M526.672 773.342C549.701 772.38 637.813 772.03 637.813 772.03L635.918 804.848C635.918 804.848 554.405 805.729 528.916 806.251C503.426 806.773 503.644 774.304 526.672 773.342Z" fill="#DF6201"/>
<path d="M215 906.749C248.447 910.123 275.404 924.078 300.5 951.749C336.098 865.216 363.396 801.874 376.5 754.249C387.237 685.261 364.5 637.749 299 623.249C232.464 611.839 192.734 634.123 168.5 684.249C140.157 773.528 131.831 862.914 123.5 921.249C146.917 907.133 175.154 902.906 215 906.749Z" fill="#FF8C3F"/>
<circle cx="214" cy="705.249" r="16.5" fill="#FFC296"/>
<circle cx="255.5" cy="664.749" r="25" fill="#FFC296"/>
<path d="M249 771.249C226.5 766.249 150.5 752.249 150.5 752.249L144 783.749C144 783.749 216 798.249 241 803.249C266 808.249 271.5 776.249 249 771.249Z" fill="#DF6201"/>
<path d="M128 885.249L123 924.322C199.006 894.02 238.27 898.072 300.5 954.322C326.961 891.739 341.008 853.256 364 789.249C291.969 865.041 241.676 888.697 128 885.249Z" fill="#F76F01"/>
<path d="M292.992 737.415C313.984 742.58 375.5 758.249 375.5 758.249C378.715 745.485 379.712 738.251 379 725.249C379 725.249 322.559 711.045 299.78 706.397C277 701.749 272 732.249 292.992 737.415Z" fill="#DF6201"/>
<path d="M227.917 869.461C250.349 874.755 326.159 889.751 326.159 889.751L338 859.749C338 859.749 261.268 842.896 236.336 837.568C211.404 832.241 205.484 864.166 227.917 869.461Z" fill="#DF6201"/>
<path d="M716 973.058C724.548 975.552 729.337 977.688 735 981.558C754.638 944.558 781.069 920.003 816 909.784C861.345 899.976 898.727 906.31 930.5 929.058C925 954.558 910.752 975.366 891 991.367C870.881 1008.49 846 1018.56 811.5 1019.06C761.5 1018.06 740 999.558 716 973.058Z" fill="#9B6F5C"/>
<circle cx="797" cy="978.058" r="25" fill="#C2A094"/>
<circle cx="854.5" cy="953.558" r="16.5" fill="#C2A094"/>
<path d="M387.5 973.558C396.048 976.052 400.337 977.424 406 981.293C425.638 944.294 452.069 919.738 487 909.52C532.345 899.712 571.227 907.311 603 930.058C597.5 955.558 583.752 977.057 564 993.058C543.881 1010.18 517 1020.06 482.5 1020.56C432.5 1019.56 411.5 1000.06 387.5 973.558Z" fill="#9B6F5C"/>
<circle cx="468" cy="982.794" r="25" fill="#C2A094"/>
<circle cx="525.5" cy="958.294" r="16.5" fill="#C2A094"/>
<circle cx="468" cy="982.794" r="25" fill="#C2A094"/>
<circle cx="525.5" cy="958.294" r="16.5" fill="#C2A094"/>
<path d="M930.5 929.058C965.775 956.091 978.465 975.361 985 1019.06H478.5H207.5C242.269 981.846 246.571 958.033 246.5 914.058C281.967 930.975 297.849 945.137 317.5 980.558C343.927 968.143 359.088 966.579 387.5 973.558C416.373 1002.5 435.453 1013.87 478.5 1019.06C549.318 1011.82 577.798 993.845 603 930.058C625.948 945.898 634.847 957.157 646 980.058C670.562 969.01 685.768 967.144 716 973.058C745.149 1005.4 777.324 1018.75 808 1018.82C868.469 1020.18 918.876 980.599 930.5 929.058Z" fill="#945D45"/>
<path d="M154 909.52C199.345 899.712 246.5 914.058 246.5 914.058C246.646 969.817 238.054 992.82 208 1019.06C208 1019.06 101.5 1018.56 67 1019.06C70.3475 982.051 100.901 919.73 154 909.52Z" fill="#9B6F5C"/>
<circle cx="135" cy="977.794" r="25" fill="#C2A094"/>
<path d="M0 1035.56C0 1026.45 7.3873 1019.06 16.5 1019.06H1035.5C1044.61 1019.06 1052 1026.45 1052 1035.56V1035.56C1052 1044.67 1044.61 1052.06 1035.5 1052.06H16.5C7.38732 1052.06 0 1044.67 0 1035.56V1035.56Z" fill="#79452C"/>
<circle cx="192.5" cy="953.294" r="16.5" fill="#C2A094"/>
<path d="M718.5 641.322C615.444 578.556 571.881 529.983 525.5 413.822L550.5 377.322C576.735 494.593 621.17 549.005 752 626.322L718.5 641.322Z" fill="#01A020"/>
<path d="M718.5 557.322L767.5 623.822L732 636.322L688 577.322C702.25 574.857 708.592 570.059 718.5 557.322Z" fill="#01BA2A"/>
<path d="M324.5 631.322L290 621.822C398.626 473.234 432.653 372.429 427.5 189.322L458 186.322C463.166 375.544 434.037 479.604 324.5 631.322Z" fill="#01A020"/>
<path d="M448.5 192.322L508.5 610.322L537.5 607.822L478 180.322L448.5 192.322Z" fill="#01BA2A"/>
<path d="M543.5 144.822C550.994 428.593 509.076 539.594 339.5 638.822L294.5 623.322C482.828 531.231 526 415.822 509 149.822C492 -116.178 543.5 144.822 543.5 144.822Z" fill="#01BA2A"/>
<path d="M617.5 191.322L548 611.322H510.5L526.4 519.822L588 165.322L617.5 191.322Z" fill="#01BA2A"/>
<path d="M391 185.822C340.158 206.837 316.179 204.411 285 163.822C247.272 174.746 224.208 156.243 215.195 120.822C209.953 84.9588 229.047 56.0785 266.5 52.8222C278.645 24.5637 294.437 7.69957 319 2.1903C341.542 -3.32029 364.229 1.39164 384 18.3222C426.795 -1.3573 448.245 -1.30187 479.5 29.3222C502.631 15.8677 516.919 15.9057 545 29.3222C565.106 17.739 578.502 16.0517 608.5 26.8222C639.892 -2.25404 660.077 -2.67607 699.5 17.8222C765.821 -11.2377 790.166 1.63593 820.5 54.3222C862.615 66.2228 872.143 82.0385 870.5 122.322C854.159 158.386 838.095 167.672 797.5 165.322C762.806 202.212 740.267 206.084 695 183.822C638.339 206.512 612.146 201.633 578.5 151.822C557.893 152.798 547.691 148.347 531.5 132.822L506 151.822C476.74 195.861 451.367 202.872 391 185.822Z" fill="#01D030"/>
<path d="M819.5 53.3223C807.201 19.4096 789.271 -4.63286 746.5 3.82233C721.042 86.3903 688.883 124.47 599 177.322C621.783 199.118 649.341 207.756 695.5 184.822C744.384 208.54 765.6 200.188 798 165.822C839.523 167.85 866.035 153.465 871 120.322C876.249 88.2512 859.382 57.0941 819.5 53.3223Z" fill="#01BA2A"/>
<circle cx="329.5" cy="82.8223" r="33.5" fill="#BDE7BF"/>
<circle cx="394" cy="127.322" r="17" fill="#BDE7BF"/>
</svg>
