<?xml version="1.0" encoding="UTF-8"?>
<!DOCTYPE svg PUBLIC "-//W3C//DTD SVG 1.1//EN" "http://www.w3.org/Graphics/SVG/1.1/DTD/svg11.dtd">
<svg xmlns="http://www.w3.org/2000/svg" version="1.1" width="183px" height="183px" style="shape-rendering:geometricPrecision; text-rendering:geometricPrecision; image-rendering:optimizeQuality; fill-rule:evenodd; clip-rule:evenodd" xmlns:xlink="http://www.w3.org/1999/xlink">
<g><path style="opacity:0.986" fill="#006a08" d="M 17.5,-0.5 C 33.8333,-0.5 50.1667,-0.5 66.5,-0.5C 77.3886,3.23584 83.5552,10.9025 85,22.5C 85.8963,37.5406 85.563,52.5406 84,67.5C 80.2954,78.2037 72.7954,84.0371 61.5,85C 48.5,85.6667 35.5,85.6667 22.5,85C 10.8815,83.5488 3.21478,77.3822 -0.5,66.5C -0.5,50.1667 -0.5,33.8333 -0.5,17.5C 1.1227,13.5995 3.28937,9.93286 6,6.5C 9.51357,3.4999 13.3469,1.16657 17.5,-0.5 Z M 23.5,14.5 C 35.8378,14.3335 48.1712,14.5001 60.5,15C 64.8963,15.7297 67.7296,18.2297 69,22.5C 69.6667,35.5 69.6667,48.5 69,61.5C 68.3102,64.196 66.8102,66.3626 64.5,68C 50.5691,69.6135 36.5691,69.9469 22.5,69C 18.2579,67.7551 15.7579,64.9218 15,60.5C 14.3333,48.1667 14.3333,35.8333 15,23.5C 16.0152,18.6543 18.8486,15.6543 23.5,14.5 Z"/></g>
<g><path style="opacity:0.978" fill="#006a08" d="M 115.5,-0.5 C 131.833,-0.5 148.167,-0.5 164.5,-0.5C 168.4,1.1227 172.067,3.28937 175.5,6C 178.5,9.51357 180.833,13.3469 182.5,17.5C 182.5,33.8333 182.5,50.1667 182.5,66.5C 178.764,77.3886 171.097,83.5552 159.5,85C 144.459,85.8963 129.459,85.563 114.5,84C 103.796,80.2954 97.9629,72.7954 97,61.5C 96.3333,48.5 96.3333,35.5 97,22.5C 98.4512,10.8815 104.618,3.21478 115.5,-0.5 Z M 121.5,14.5 C 133.838,14.3335 146.171,14.5001 158.5,15C 163.333,15.8333 166.167,18.6667 167,23.5C 167.667,35.8333 167.667,48.1667 167,60.5C 166.27,64.8963 163.77,67.7296 159.5,69C 146.5,69.6667 133.5,69.6667 120.5,69C 117.804,68.3102 115.637,66.8102 114,64.5C 112.386,50.5691 112.053,36.5691 113,22.5C 114.419,18.2452 117.253,15.5785 121.5,14.5 Z"/></g>
<g><path style="opacity:0.987" fill="#016a08" d="M 66.5,182.5 C 50.1667,182.5 33.8333,182.5 17.5,182.5C 13.5995,180.877 9.93286,178.711 6.5,176C 3.4999,172.486 1.16657,168.653 -0.5,164.5C -0.5,148.167 -0.5,131.833 -0.5,115.5C 3.23584,104.611 10.9025,98.4448 22.5,97C 37.5406,96.1037 52.5406,96.437 67.5,98C 78.2037,101.705 84.0371,109.205 85,120.5C 85.6667,133.5 85.6667,146.5 85,159.5C 83.5488,171.119 77.3822,178.785 66.5,182.5 Z M 22.5,112.5 C 35.5043,112.333 48.5043,112.5 61.5,113C 64.196,113.69 66.3626,115.19 68,117.5C 69.6135,131.431 69.9469,145.431 69,159.5C 67.7551,163.742 64.9218,166.242 60.5,167C 48.1667,167.667 35.8333,167.667 23.5,167C 18.6667,166.167 15.8333,163.333 15,158.5C 14.3333,146.167 14.3333,133.833 15,121.5C 15.9227,117.086 18.4227,114.086 22.5,112.5 Z"/></g>
<g><path style="opacity:0.979" fill="#016a08" d="M 182.5,115.5 C 182.5,131.833 182.5,148.167 182.5,164.5C 180.877,168.4 178.711,172.067 176,175.5C 172.486,178.5 168.653,180.833 164.5,182.5C 148.167,182.5 131.833,182.5 115.5,182.5C 104.611,178.764 98.4448,171.097 97,159.5C 96.1037,144.459 96.437,129.459 98,114.5C 101.705,103.796 109.205,97.9629 120.5,97C 133.5,96.3333 146.5,96.3333 159.5,97C 171.119,98.4512 178.785,104.618 182.5,115.5 Z M 120.5,112.5 C 133.504,112.333 146.504,112.5 159.5,113C 163.742,114.245 166.242,117.078 167,121.5C 167.667,133.833 167.667,146.167 167,158.5C 166.167,163.333 163.333,166.167 158.5,167C 146.167,167.667 133.833,167.667 121.5,167C 117.104,166.27 114.27,163.77 113,159.5C 112.333,146.5 112.333,133.5 113,120.5C 114.353,116.65 116.853,113.983 120.5,112.5 Z"/></g>
</svg>
