<svg width="428" height="510" viewBox="0 0 428 510" fill="none" xmlns="http://www.w3.org/2000/svg">
<circle cx="215" cy="125" r="125" fill="#DA6900"/>
<path d="M292.478 259.865C282.959 265.925 274.423 270.624 266.144 274.307C237.937 286.853 213.5 310.538 213.5 341.41V450C213.5 483.137 240.363 510 273.5 510H345.164C348.051 510 350.944 509.802 353.795 509.347C388.024 503.887 405.931 494.423 422.217 457.802C424.497 452.673 425.805 447.151 426.294 441.559C430.941 388.435 426.601 355.936 400.5 299.5C382.429 267.208 364.959 254.857 331.059 250.019C317.505 248.085 304.027 252.511 292.478 259.865Z" fill="#DA6900"/>
<path d="M135.443 259.865C144.961 265.925 153.497 270.624 161.776 274.307C189.983 286.853 214.42 310.538 214.42 341.41V450C214.42 483.137 187.557 510 154.42 510H82.7561C79.8694 510 76.9765 509.802 74.1258 509.347C39.8969 503.887 21.9894 494.423 5.7038 457.802C3.42305 452.673 2.11554 447.151 1.62646 441.559C-3.02017 388.435 1.31902 355.936 27.4204 299.5C45.4911 267.208 62.9613 254.857 96.8612 250.019C110.415 248.085 123.894 252.511 135.443 259.865Z" fill="#DA6900"/>
<path d="M262.5 277C224.044 289.799 202.738 291.277 165.5 277L154.5 509.5H279.5L262.5 277Z" fill="#DA6900"/>
</svg>
