<?xml version="1.0" encoding="UTF-8"?>
<!DOCTYPE svg PUBLIC "-//W3C//DTD SVG 1.1//EN" "http://www.w3.org/Graphics/SVG/1.1/DTD/svg11.dtd">
<svg xmlns="http://www.w3.org/2000/svg" version="1.1" width="512px" height="512px" style="shape-rendering:geometricPrecision; text-rendering:geometricPrecision; image-rendering:optimizeQuality; fill-rule:evenodd; clip-rule:evenodd" xmlns:xlink="http://www.w3.org/1999/xlink">
<g><path style="opacity:0.935" fill="#047731" d="M 397.5,-0.5 C 405.167,-0.5 412.833,-0.5 420.5,-0.5C 431.505,4.33931 439.339,12.3393 444,23.5C 444.17,29.5275 444.67,35.5275 445.5,41.5C 460.78,33.7425 476.113,33.5759 491.5,41C 503.285,49.6806 507.618,61.1806 504.5,75.5C 501.69,80.1439 498.023,83.9773 493.5,87C 480.333,94.7492 467.333,102.749 454.5,111C 462.898,116.063 470.731,121.896 478,128.5C 483.167,135.674 487.5,143.34 491,151.5C 492.799,158.243 490.299,162.243 483.5,163.5C 481.143,162.905 478.977,161.905 477,160.5C 475.295,155.852 473.129,151.519 470.5,147.5C 470.715,145.821 470.048,144.821 468.5,144.5C 458.796,130.159 445.462,122.326 428.5,121C 414.126,120.109 399.792,120.443 385.5,122C 358.155,129.021 343.488,146.688 341.5,175C 341.682,187.909 345.182,199.742 352,210.5C 354.743,212.788 357.577,214.955 360.5,217C 397.46,218.468 434.46,218.968 471.5,218.5C 473.655,207.586 475.822,196.586 478,185.5C 481.338,182.682 485.171,181.849 489.5,183C 491.871,184.743 493.205,187.077 493.5,190C 491.777,200.501 490.111,211.001 488.5,221.5C 496.095,224.429 501.429,229.762 504.5,237.5C 505.666,247.817 505.832,258.151 505,268.5C 502.271,274.563 498.104,279.397 492.5,283C 495.49,286.628 497.323,290.795 498,295.5C 498.667,302.833 498.667,310.167 498,317.5C 496.24,326.523 491.407,333.356 483.5,338C 486.404,342.379 487.904,347.213 488,352.5C 490.728,366.874 486.894,379.04 476.5,389C 474.377,389.815 472.377,390.815 470.5,392C 472.652,394.469 474.152,397.302 475,400.5C 480.5,422.498 473,437.831 452.5,446.5C 451.047,454.504 449.547,462.504 448,470.5C 437.655,491.587 420.822,499.754 397.5,495C 385.087,490.255 376.254,481.755 371,469.5C 369.182,461.925 368.015,454.259 367.5,446.5C 342.702,445.707 318.702,440.874 295.5,432C 285.659,427.609 275.659,423.609 265.5,420C 259.243,418.683 252.909,418.183 246.5,418.5C 249.032,433.963 243.032,444.13 228.5,449C 211.833,449.667 195.167,449.667 178.5,449C 171.653,447.576 166.653,443.743 163.5,437.5C 117.837,436.667 72.1703,436.167 26.5,436C 19.1429,433.311 13.6429,428.478 10,421.5C 9.33333,360.167 9.33333,298.833 10,237.5C 14.1507,229.347 20.6507,224.18 29.5,222C 74.5037,221.833 119.504,221.333 164.5,220.5C 167.144,215.671 171.144,212.505 176.5,211C 193.121,209.408 209.788,209.075 226.5,210C 233.934,211.441 239.768,215.274 244,221.5C 245.792,227.025 246.958,232.692 247.5,238.5C 254.273,235.897 260.107,231.897 265,226.5C 275.134,211.434 287.634,198.6 302.5,188C 309.273,184.613 316.273,181.78 323.5,179.5C 323.826,160.012 330.16,142.845 342.5,128C 349.472,121.849 356.805,116.183 364.5,111C 351.307,101.571 337.641,92.9046 323.5,85C 312.471,75.4792 310.638,64.3125 318,51.5C 328.027,37.707 341.527,32.5403 358.5,36C 364.499,36.9167 369.999,39.0834 375,42.5C 371.474,22.2135 378.974,7.88019 397.5,-0.5 Z M 406.5,14.5 C 418.652,13.9976 425.652,19.6643 427.5,31.5C 424.756,55.8873 420.089,79.8873 413.5,103.5C 410.289,103.988 407.456,103.321 405,101.5C 396.918,76.762 392.584,51.4286 392,25.5C 392.667,24.1667 393.333,22.8333 394,21.5C 397.739,18.2185 401.905,15.8852 406.5,14.5 Z M 347.5,51.5 C 359.974,51.8202 370.14,56.8202 378,66.5C 381.651,78.7668 385.151,91.1001 388.5,103.5C 387.372,104.262 386.205,104.929 385,105.5C 382.78,102.979 380.28,100.812 377.5,99C 361.577,89.7912 346.077,79.9579 331,69.5C 329.779,62.1088 332.612,56.9422 339.5,54C 342.31,53.2177 344.977,52.3844 347.5,51.5 Z M 467.5,51.5 C 473.521,51.6707 479.188,53.1707 484.5,56C 488.449,60.2897 489.615,65.123 488,70.5C 469.751,81.7421 451.751,93.4088 434,105.5C 432.601,104.773 431.101,104.273 429.5,104C 433.053,92.9572 436.219,81.7905 439,70.5C 442.799,65.6994 446.966,61.1994 451.5,57C 456.715,54.4295 462.048,52.5961 467.5,51.5 Z M 470.5,365.5 C 470.5,366.167 470.5,366.833 470.5,367.5C 469.831,372.334 467.164,375.5 462.5,377C 438.5,377.333 414.5,377.667 390.5,378C 382.5,383.333 382.5,388.667 390.5,394C 411.231,394.034 431.898,394.701 452.5,396C 454.378,397.543 455.878,399.376 457,401.5C 457.667,408.833 457.667,416.167 457,423.5C 455.084,427.085 452.251,429.585 448.5,431C 421.167,431.667 393.833,431.667 366.5,431C 351.901,430.289 337.568,427.956 323.5,424C 305.733,417.617 288.067,410.951 270.5,404C 262.705,401.752 254.872,401.252 247,402.5C 246.5,353.168 246.333,303.834 246.5,254.5C 259.278,252.027 270.111,246.027 279,236.5C 285.663,226.69 293.163,217.524 301.5,209C 308.86,203.499 316.86,198.999 325.5,195.5C 330.33,214.499 341.997,227.332 360.5,234C 401.213,234.023 441.88,234.689 482.5,236C 485,237.167 486.833,239 488,241.5C 490,249.167 490,256.833 488,264.5C 486.5,267.333 484.333,269.5 481.5,271C 443.833,271.333 406.167,271.667 368.5,272C 362.149,274.201 360.315,278.368 363,284.5C 364.779,286.764 367.113,288.097 370,288.5C 404.137,287.344 438.304,287.177 472.5,288C 476.573,289.072 479.407,291.572 481,295.5C 481.667,302.833 481.667,310.167 481,317.5C 479.437,320.728 476.937,322.895 473.5,324C 442.167,324.333 410.833,324.667 379.5,325C 370.185,330.295 370.185,335.628 379.5,341C 407.833,341.333 436.167,341.667 464.5,342C 467.106,343.938 468.939,346.438 470,349.5C 470.499,354.823 470.666,360.156 470.5,365.5 Z M 181.5,225.5 C 196.17,225.333 210.837,225.5 225.5,226C 226.667,226.5 227.5,227.333 228,228.5C 228.667,296.167 228.667,363.833 228,431.5C 227.311,432.357 226.478,433.023 225.5,433.5C 211.009,433.624 196.342,433.458 181.5,433C 180.299,432.097 179.465,430.931 179,429.5C 178.667,384.167 178.333,338.833 178,293.5C 175.459,288.931 171.625,287.431 166.5,289C 164.333,289.833 162.833,291.333 162,293.5C 161.5,336.165 161.333,378.832 161.5,421.5C 117.44,421.984 73.4397,421.484 29.5,420C 27.9512,418.786 26.7845,417.286 26,415.5C 25.3333,358.167 25.3333,300.833 26,243.5C 26.4652,242.069 27.2986,240.903 28.5,240C 72.7484,238.511 117.082,238.011 161.5,238.5C 161.334,247.506 161.5,256.506 162,265.5C 164.435,270.224 168.269,271.724 173.5,270C 175.57,269.052 177.07,267.552 178,265.5C 178.333,253.5 178.667,241.5 179,229.5C 179.662,228.016 180.496,226.683 181.5,225.5 Z M 385.5,447.5 C 401.5,447.5 417.5,447.5 433.5,447.5C 433.463,455.943 431.63,463.943 428,471.5C 416.283,483.011 404.283,483.344 392,472.5C 387.751,464.769 385.584,456.436 385.5,447.5 Z"/></g>
<g><path style="opacity:0.049" fill="#023416" d="M 468.5,144.5 C 470.048,144.821 470.715,145.821 470.5,147.5C 469.599,146.71 468.932,145.71 468.5,144.5 Z"/></g>
<g><path style="opacity:0.229" fill="#023817" d="M 470.5,365.5 C 473.167,366.167 473.167,366.833 470.5,367.5C 470.5,366.833 470.5,366.167 470.5,365.5 Z"/></g>
</svg>
