<?xml version="1.0" encoding="UTF-8"?>
<!DOCTYPE svg PUBLIC "-//W3C//DTD SVG 1.1//EN" "http://www.w3.org/Graphics/SVG/1.1/DTD/svg11.dtd">
<svg xmlns="http://www.w3.org/2000/svg" version="1.1" width="512px" height="512px" style="shape-rendering:geometricPrecision; text-rendering:geometricPrecision; image-rendering:optimizeQuality; fill-rule:evenodd; clip-rule:evenodd" xmlns:xlink="http://www.w3.org/1999/xlink">
<g><path style="opacity:0.96" fill="#f5590e" d="M 399.5,-0.5 C 405.167,-0.5 410.833,-0.5 416.5,-0.5C 437.369,7.21657 445.869,22.2166 442,44.5C 452.984,37.9514 464.817,35.7847 477.5,38C 496.822,43.1458 505.322,55.6458 503,75.5C 502.194,78.4456 500.861,81.1123 499,83.5C 483.586,94.1237 468.086,104.624 452.5,115C 468.862,123.693 480.695,136.527 488,153.5C 489.405,157.072 489.738,160.739 489,164.5C 485.832,168.533 481.999,169.367 477.5,167C 473.473,159.784 469.307,152.617 465,145.5C 454.646,133.238 441.479,126.072 425.5,124C 411.796,123.138 398.129,123.472 384.5,125C 362.181,130.653 347.681,144.486 341,166.5C 337.922,182.05 339.589,197.05 346,211.5C 349.933,217.434 355.1,221.934 361.5,225C 397.838,225.833 434.171,225.667 470.5,224.5C 472.344,213.424 474.51,202.424 477,191.5C 480.309,188.353 484.142,187.687 488.5,189.5C 491.356,192.624 492.189,196.291 491,200.5C 489.769,209.385 488.269,218.218 486.5,227C 494.945,231.447 500.445,238.28 503,247.5C 503.667,256.833 503.667,266.167 503,275.5C 500.891,282.423 497.058,288.09 491.5,292.5C 493.274,295.715 494.774,299.048 496,302.5C 496.667,311.5 496.667,320.5 496,329.5C 493.859,337.978 489.025,344.478 481.5,349C 483.988,352.796 485.488,356.962 486,361.5C 489.91,379.793 484.41,394.293 469.5,405C 471.976,411.749 472.976,418.749 472.5,426C 474.484,444.147 466.817,455.647 449.5,460.5C 449.139,472.003 446.639,483.003 442,493.5C 435.815,502.329 427.648,508.329 417.5,511.5C 411.5,511.5 405.5,511.5 399.5,511.5C 384.289,507.457 374.456,497.79 370,482.5C 368.923,475.359 367.423,468.359 365.5,461.5C 344.295,460.092 323.629,455.926 303.5,449C 290.167,443.667 276.833,438.333 263.5,433C 256.897,431.726 250.23,431.226 243.5,431.5C 245.89,442.831 242.89,452.331 234.5,460C 232.283,461.275 229.949,462.275 227.5,463C 210.5,463.667 193.5,463.667 176.5,463C 169.734,461.128 164.734,457.128 161.5,451C 114.775,450.985 68.1079,450.319 21.5,449C 14.8513,445.686 10.3513,440.519 8,433.5C 7.33333,371.5 7.33333,309.5 8,247.5C 10.0029,239.498 14.8362,233.998 22.5,231C 69.1247,229.853 115.791,229.02 162.5,228.5C 165.894,221.97 171.227,218.136 178.5,217C 194.167,216.333 209.833,216.333 225.5,217C 234.886,218.719 240.719,224.219 243,233.5C 243.499,237.821 243.666,242.154 243.5,246.5C 248.525,245.155 253.192,242.988 257.5,240C 268.127,227.038 279.127,214.371 290.5,202C 300.138,193.847 311.138,188.347 323.5,185.5C 322.376,153.23 336.043,129.73 364.5,115C 349.031,105.03 333.698,94.863 318.5,84.5C 309.276,69.5112 311.276,56.0112 324.5,44C 334.657,37.8584 345.657,35.8584 357.5,38C 362.895,38.743 367.895,40.5764 372.5,43.5C 369.917,21.2742 378.917,6.60756 399.5,-0.5 Z M 401.5,15.5 C 415.589,13.026 423.922,18.6926 426.5,32.5C 423.805,57.6404 418.805,82.3071 411.5,106.5C 408.914,107.48 406.247,107.813 403.5,107.5C 396.716,83.4139 392.05,58.9139 389.5,34C 389.359,25.1082 393.359,18.9415 401.5,15.5 Z M 341.5,53.5 C 358.63,51.6464 371.13,58.3131 379,73.5C 381.208,84.9981 384.041,96.3314 387.5,107.5C 385.102,108.724 382.769,108.558 380.5,107C 363.42,95.0433 346.254,83.2099 329,71.5C 328.467,62.2325 332.633,56.2325 341.5,53.5 Z M 460.5,53.5 C 467.391,52.9013 474.058,53.7346 480.5,56C 486.164,60.1555 488.33,65.6555 487,72.5C 469.227,83.9419 451.727,95.7752 434.5,108C 432.527,108.495 430.527,108.662 428.5,108.5C 431.2,96.0316 434.367,83.6983 438,71.5C 443.666,62.9797 451.166,56.9797 460.5,53.5 Z M 323.5,201.5 C 324.376,201.369 325.043,201.702 325.5,202.5C 329.449,220.946 340.115,233.779 357.5,241C 397.167,241.333 436.833,241.667 476.5,242C 481.681,242.831 485.181,245.664 487,250.5C 487.667,257.833 487.667,265.167 487,272.5C 485.5,276 483,278.5 479.5,280C 441.833,280.333 404.167,280.667 366.5,281C 360.458,283.837 358.958,288.337 362,294.5C 363.823,296.167 365.99,297.167 368.5,297.5C 402.477,296.347 436.477,296.18 470.5,297C 475.206,298.105 478.373,300.938 480,305.5C 480.667,312.5 480.667,319.5 480,326.5C 478.5,330.667 475.667,333.5 471.5,335C 440.167,335.333 408.833,335.667 377.5,336C 372.776,338.435 371.276,342.269 373,347.5C 373.5,349.333 374.667,350.5 376.5,351C 404.5,351.333 432.5,351.667 460.5,352C 465.428,353.927 468.594,357.427 470,362.5C 471.072,370.029 470.405,377.362 468,384.5C 466.062,387.106 463.562,388.939 460.5,390C 436.5,390.333 412.5,390.667 388.5,391C 383.465,394.013 382.298,398.18 385,403.5C 385.903,404.701 387.069,405.535 388.5,406C 408.167,406.333 427.833,406.667 447.5,407C 451.693,408.526 454.526,411.359 456,415.5C 456.667,422.5 456.667,429.5 456,436.5C 454.373,441.062 451.206,443.895 446.5,445C 415.148,445.893 383.814,445.559 352.5,444C 340.978,442.562 329.645,440.229 318.5,437C 302.055,430.944 285.722,424.611 269.5,418C 260.97,415.861 252.303,415.027 243.5,415.5C 243.167,364.829 243.5,314.162 244.5,263.5C 253.411,261.479 261.411,257.646 268.5,252C 279.736,239.52 290.736,226.854 301.5,214C 308.473,209.019 315.806,204.852 323.5,201.5 Z M 180.5,232.5 C 194.837,232.333 209.171,232.5 223.5,233C 225.333,233.5 226.5,234.667 227,236.5C 227.667,305.833 227.667,375.167 227,444.5C 226.167,445.333 225.333,446.167 224.5,447C 209.5,447.667 194.5,447.667 179.5,447C 178.333,446.5 177.5,445.667 177,444.5C 176.667,398.167 176.333,351.833 176,305.5C 174.825,298.924 170.992,296.757 164.5,299C 163.069,299.465 161.903,300.299 161,301.5C 160.5,345.832 160.333,390.165 160.5,434.5C 115.748,434.99 71.0818,434.49 26.5,433C 25.2986,432.097 24.4652,430.931 24,429.5C 23.3333,369.833 23.3333,310.167 24,250.5C 25.1094,248.185 26.9427,246.685 29.5,246C 73.1654,245.5 116.832,245.333 160.5,245.5C 160.334,255.506 160.5,265.506 161,275.5C 165.667,279.5 170.333,279.5 175,275.5C 175.333,274.167 175.667,272.833 176,271.5C 176.333,259.5 176.667,247.5 177,235.5C 178.145,234.364 179.312,233.364 180.5,232.5 Z M 382.5,462.5 C 399.325,461.503 416.325,461.17 433.5,461.5C 433.035,470.299 430.869,478.632 427,486.5C 414.839,498.819 402.505,499.153 390,487.5C 388.139,485.112 386.806,482.446 386,479.5C 384.816,473.699 383.649,468.032 382.5,462.5 Z"/></g>
</svg>
