<?xml version="1.0" encoding="UTF-8"?>
<svg width="513px" height="512px" viewBox="0 0 513 512" version="1.1" xmlns="http://www.w3.org/2000/svg" xmlns:xlink="http://www.w3.org/1999/xlink">
    <title>Untitled 2</title>
    <g id="Page-1" stroke="none" stroke-width="1" fill="none" fill-rule="evenodd">
        <g id="tg" transform="translate(1.000000, 0.000000)">
            <circle id="Oval" fill="#25A3E1" cx="256" cy="256" r="256"></circle>
            <path d="M371.5,198.5 C364.729,243.46 357.396,288.46 349.5,333.5 C347.64,348.2 344.307,362.533 339.5,376.5 C337.734,378.771 335.734,380.937 333.5,383 C327.167,385 320.833,385 314.5,383 C310.313,381.075 306.313,378.908 302.5,376.5 C280.13,360.808 257.463,345.475 234.5,330.5 C228.647,327.16 223.48,322.827 219,317.5 C216.172,313.698 215.839,309.698 218,305.5 C221.754,299.742 226.254,294.575 231.5,290 C257.296,267.204 282.13,243.371 306,218.5 C306.486,213.008 303.986,211.175 298.5,213 C261.49,236.837 224.823,261.17 188.5,286 C177.834,293.122 166.167,295.456 153.5,293 C135.308,288.936 117.641,283.269 100.5,276 C94.8984,270.608 95.2317,265.608 101.5,261 C105.674,258.412 110.007,256.079 114.5,254 C154.976,236.573 195.309,219.073 235.5,201.5 C265.145,189.346 294.812,177.179 324.5,165 C335.844,160.323 347.51,156.823 359.5,154.5 C366.996,154.143 371.83,157.477 374,164.5 C373.502,175.834 372.668,187.168 371.5,198.5 Z" id="Path" fill="#FEFEFE"></path>
        </g>
    </g>
</svg>