<?xml version="1.0" encoding="UTF-8"?>
<!DOCTYPE svg PUBLIC "-//W3C//DTD SVG 1.1//EN" "http://www.w3.org/Graphics/SVG/1.1/DTD/svg11.dtd">
<svg xmlns="http://www.w3.org/2000/svg" version="1.1" width="512px" height="512px" style="shape-rendering:geometricPrecision; text-rendering:geometricPrecision; image-rendering:optimizeQuality; fill-rule:evenodd; clip-rule:evenodd" xmlns:xlink="http://www.w3.org/1999/xlink">
<g><path style="opacity:0.997" fill="#6f3faa" d="M 232.5,-0.5 C 247.833,-0.5 263.167,-0.5 278.5,-0.5C 368.144,10.3879 435.644,54.7213 481,132.5C 497.695,163.971 507.861,197.304 511.5,232.5C 511.5,247.833 511.5,263.167 511.5,278.5C 500.612,368.144 456.279,435.644 378.5,481C 347.029,497.695 313.696,507.861 278.5,511.5C 263.167,511.5 247.833,511.5 232.5,511.5C 142.856,500.612 75.3562,456.279 30,378.5C 13.3053,347.029 3.1386,313.696 -0.5,278.5C -0.5,263.167 -0.5,247.833 -0.5,232.5C 10.3875,142.857 54.7208,75.3573 132.5,30C 163.971,13.3053 197.304,3.1386 232.5,-0.5 Z"/></g>
<g><path style="opacity:1" fill="#fdfcfd" d="M 176.5,404.5 C 177.146,391.788 176.48,379.455 174.5,367.5C 140.195,355.029 117.695,331.362 107,296.5C 99.2508,259.281 98.5841,221.948 105,184.5C 110.63,154.744 126.13,131.577 151.5,115C 161.018,108.741 171.352,104.408 182.5,102C 232.548,93.1221 282.548,93.4554 332.5,103C 359.871,112.039 381.038,128.872 396,153.5C 399.655,160.132 402.321,167.132 404,174.5C 412.9,216.893 412.567,259.226 403,301.5C 390.146,335.689 366.313,358.189 331.5,369C 298.773,374.933 265.773,377.6 232.5,377C 220.47,388.696 208.804,400.696 197.5,413C 187.23,417.857 180.23,415.024 176.5,404.5 Z"/></g>
<g><path style="opacity:1" fill="#6f3faa" d="M 227.5,123.5 C 260.764,121.871 293.764,124.037 326.5,130C 351.368,138.868 368.201,155.701 377,180.5C 384.857,219.649 384.19,258.649 375,297.5C 364.483,319.018 347.983,333.852 325.5,342C 298.719,346.778 271.719,349.112 244.5,349C 226.57,367.097 208.57,384.93 190.5,402.5C 189.558,402.392 188.725,402.059 188,401.5C 187.667,382.167 187.333,362.833 187,343.5C 163.961,334.791 146.961,319.457 136,297.5C 126.501,257.222 126.168,216.889 135,176.5C 144.775,153.859 161.275,138.359 184.5,130C 198.92,127.5 213.253,125.334 227.5,123.5 Z"/></g>
<g><path style="opacity:1" fill="#faf8fc" d="M 251.5,156.5 C 300.955,159.455 327.955,185.622 332.5,235C 333.91,241.248 331.577,243.914 325.5,243C 324.874,242.25 324.374,241.416 324,240.5C 324.407,207.104 309.574,183.604 279.5,170C 270.38,167.193 261.047,165.526 251.5,165C 247.605,162.178 247.605,159.345 251.5,156.5 Z"/></g>
<g><path style="opacity:1" fill="#fdfdfe" d="M 198.5,165.5 C 203.609,164.923 207.776,166.59 211,170.5C 218.071,178.974 224.405,187.974 230,197.5C 232.411,203.033 231.578,208.033 227.5,212.5C 224.812,215.022 221.979,217.356 219,219.5C 216.93,224.624 217.264,229.624 220,234.5C 228.649,254.483 243.149,268.316 263.5,276C 266.634,276.79 269.634,276.457 272.5,275C 275.833,271.333 279.167,267.667 282.5,264C 287.657,261.832 292.657,262.165 297.5,265C 306.949,271.448 316.116,278.282 325,285.5C 326.545,287.209 327.378,289.209 327.5,291.5C 323.879,304.288 315.879,313.121 303.5,318C 300.5,318.667 297.5,318.667 294.5,318C 242.912,299.407 205.745,265.241 183,215.5C 179.731,208.136 176.898,200.636 174.5,193C 175.317,187.546 177.483,182.712 181,178.5C 186.171,173.147 192.004,168.814 198.5,165.5 Z"/></g>
<g><path style="opacity:1" fill="#f9f7fb" d="M 257.5,176.5 C 293.322,178.819 311.489,197.819 312,233.5C 309.333,236.167 306.667,236.167 304,233.5C 302.78,203.777 287.28,187.443 257.5,184.5C 254.848,181.799 254.848,179.132 257.5,176.5 Z"/></g>
<g><path style="opacity:1" fill="#f9f7fb" d="M 263.5,197.5 C 284.88,198.013 293.88,208.513 290.5,229C 288.299,229.825 286.466,229.325 285,227.5C 284.612,214.113 277.778,206.946 264.5,206C 260.986,203.468 260.653,200.635 263.5,197.5 Z"/></g>
<g><path style="opacity:1" fill="#d4c6e5" d="M 174.5,367.5 C 176.48,379.455 177.146,391.788 176.5,404.5C 175.815,392.265 175.148,379.932 174.5,367.5 Z"/></g>
</svg>
