<?xml version="1.0" encoding="UTF-8"?>
<!DOCTYPE svg PUBLIC "-//W3C//DTD SVG 1.1//EN" "http://www.w3.org/Graphics/SVG/1.1/DTD/svg11.dtd">
<svg xmlns="http://www.w3.org/2000/svg" version="1.1" width="512px" height="512px" style="shape-rendering:geometricPrecision; text-rendering:geometricPrecision; image-rendering:optimizeQuality; fill-rule:evenodd; clip-rule:evenodd" xmlns:xlink="http://www.w3.org/1999/xlink">
<g><path style="opacity:0.998" fill="#2787f5" d="M 155.5,-0.5 C 222.167,-0.5 288.833,-0.5 355.5,-0.5C 380.317,0.352577 404.984,3.51924 429.5,9C 467.667,19.1667 491.833,43.3333 502,81.5C 507.408,106.024 510.574,130.691 511.5,155.5C 511.5,222.167 511.5,288.833 511.5,355.5C 510.574,380.309 507.408,404.976 502,429.5C 491.833,467.667 467.667,491.833 429.5,502C 404.976,507.408 380.309,510.574 355.5,511.5C 288.833,511.5 222.167,511.5 155.5,511.5C 129.605,510.675 103.938,507.175 78.5,501C 41.998,490.187 18.8313,466.354 9,429.5C 3.60203,405.311 0.435365,380.977 -0.5,356.5C -0.5,289.167 -0.5,221.833 -0.5,154.5C 0.435365,130.023 3.60203,105.689 9,81.5C 19.1667,43.3333 43.3333,19.1667 81.5,9C 106.024,3.59234 130.691,0.425676 155.5,-0.5 Z"/></g>
<g><path style="opacity:1" fill="#fefefe" d="M 94.5,159.5 C 110.503,159.333 126.503,159.5 142.5,160C 149.043,162.213 153.21,166.713 155,173.5C 165.447,206.4 181.114,236.4 202,263.5C 205.968,268.223 210.801,271.556 216.5,273.5C 220.406,273.428 222.573,271.428 223,267.5C 223.667,244.167 223.667,220.833 223,197.5C 222.204,192.519 220.538,187.852 218,183.5C 214.753,179.341 211.753,175.008 209,170.5C 208.041,166.579 209.208,163.412 212.5,161C 235.078,159.355 257.745,159.022 280.5,160C 283.973,160.807 286.14,162.973 287,166.5C 287.333,195.167 287.667,223.833 288,252.5C 291.373,258.205 295.873,259.038 301.5,255C 315.605,241.632 327.439,226.465 337,209.5C 344.861,195.112 352.194,180.445 359,165.5C 361.441,163.031 364.274,161.198 367.5,160C 384.553,159.058 401.553,159.391 418.5,161C 421.387,162.709 422.721,165.209 422.5,168.5C 421.313,173.564 419.813,178.564 418,183.5C 403.42,211.007 387.087,237.341 369,262.5C 366.938,267.201 367.605,271.534 371,275.5C 390.781,294.111 408.448,314.444 424,336.5C 426.824,340.977 428.657,345.81 429.5,351C 429.329,357.505 425.996,361.172 419.5,362C 403.1,362.955 386.766,362.622 370.5,361C 368.833,360 367.167,359 365.5,358C 352.196,343.695 338.529,329.695 324.5,316C 317.844,310.335 310.51,305.668 302.5,302C 298.833,301.333 295.167,301.333 291.5,302C 289.951,303.214 288.785,304.714 288,306.5C 287.667,321.833 287.333,337.167 287,352.5C 285.86,356.307 283.36,358.807 279.5,360C 250.811,365.001 224.144,359.667 199.5,344C 183.851,334.355 170.017,322.522 158,308.5C 135.214,279.287 116.214,247.621 101,213.5C 96.2022,201.773 92.2022,189.773 89,177.5C 88.3333,173.167 88.3333,168.833 89,164.5C 90.7297,162.598 92.563,160.931 94.5,159.5 Z"/></g>
</svg>
