<?xml version="1.0" encoding="UTF-8"?>
<!DOCTYPE svg PUBLIC "-//W3C//DTD SVG 1.1//EN" "http://www.w3.org/Graphics/SVG/1.1/DTD/svg11.dtd">
<svg xmlns="http://www.w3.org/2000/svg" version="1.1" width="406px" height="528px" style="shape-rendering:geometricPrecision; text-rendering:geometricPrecision; image-rendering:optimizeQuality; fill-rule:evenodd; clip-rule:evenodd" xmlns:xlink="http://www.w3.org/1999/xlink">
<g><path style="opacity:0.968" fill="#da6900" d="M 247.5,527.5 C 245.167,527.5 242.833,527.5 240.5,527.5C 238.525,526.354 237.025,524.687 236,522.5C 225.771,497.812 215.938,472.978 206.5,448C 207.75,441.099 211.75,438.766 218.5,441C 219.333,441.833 220.167,442.667 221,443.5C 228.909,462.979 237.075,482.312 245.5,501.5C 253.795,488.407 262.462,475.574 271.5,463C 274.833,462.333 278.167,462.333 281.5,463C 293.759,465.94 305.926,469.106 318,472.5C 302.48,432.635 286.147,392.969 269,353.5C 268.586,353.043 268.086,352.709 267.5,352.5C 256.686,361.48 246.019,370.646 235.5,380C 229.002,384.417 222.335,388.584 215.5,392.5C 197.169,437.006 178.169,481.172 158.5,525C 153.676,527.446 149.509,526.613 146,522.5C 136.736,507.627 127.236,492.96 117.5,478.5C 100.922,482.216 84.2549,485.549 67.5,488.5C 61.0414,487.592 58.5414,483.926 60,477.5C 77.5975,436.207 95.0975,394.874 112.5,353.5C 112.291,352.914 111.957,352.414 111.5,352C 96.8181,351.868 83.1514,348.201 70.5,341C 62.2758,333.69 57.4425,324.523 56,313.5C 53.8925,297.542 52.2258,281.542 51,265.5C 39.0449,252.903 28.0449,239.57 18,225.5C 8.42986,211.039 8.09652,196.372 17,181.5C 27.2411,167.255 38.2411,153.588 50,140.5C 51.2551,125.834 52.5885,111.167 54,96.5C 55.5539,75.4965 66.3872,62.3298 86.5,57C 104.055,54.0647 121.722,52.0647 139.5,51C 152.292,38.5353 165.958,27.202 180.5,17C 195.343,8.14893 210.01,8.48226 224.5,18C 238.372,27.5328 251.372,38.1994 263.5,50C 278.506,51.2162 293.506,52.5495 308.5,54C 329.504,55.5539 342.67,66.3872 348,86.5C 350.935,104.055 352.935,121.722 354,139.5C 366.465,152.292 377.798,165.958 388,180.5C 396.851,195.343 396.518,210.01 387,224.5C 377.467,238.372 366.801,251.372 355,263.5C 353.792,280.209 352.125,296.876 350,313.5C 347.241,330.924 337.408,342.091 320.5,347C 308.94,349.396 297.273,351.062 285.5,352C 303.796,394.76 321.962,437.594 340,480.5C 340.777,489.716 336.61,493.216 327.5,491C 311.53,487.216 295.697,483.05 280,478.5C 269.626,495.279 258.793,511.612 247.5,527.5 Z M 198.5,26.5 C 205.063,26.4091 211.063,28.2425 216.5,32C 231.079,42.5753 245.079,53.9086 258.5,66C 274.87,66.9041 291.204,68.2374 307.5,70C 324.091,71.5919 332.924,80.7586 334,97.5C 335.789,113.126 337.122,128.793 338,144.5C 347.626,156.461 357.626,168.128 368,179.5C 373.522,186.045 377.022,193.545 378.5,202C 376.821,209.525 373.654,216.358 369,222.5C 359,234.5 349,246.5 339,258.5C 338.041,272.17 337.041,285.837 336,299.5C 335.392,307.547 333.392,315.214 330,322.5C 326.021,327.574 320.854,330.741 314.5,332C 295.904,334.756 277.238,336.756 258.5,338C 244.281,352.562 228.614,365.229 211.5,376C 206.167,378 200.833,378 195.5,376C 191.673,374.254 188.007,372.254 184.5,370C 172.205,360.041 160.205,349.707 148.5,339C 132.869,337.624 117.202,336.291 101.5,335C 85.0735,335.224 75.2402,327.391 72,311.5C 69.4224,294.263 67.7557,276.93 67,259.5C 56.2927,247.795 45.9593,235.795 36,223.5C 30.8153,217.629 27.6486,210.796 26.5,203C 27.4733,196.219 29.9733,190.053 34,184.5C 44.6667,171.833 55.3333,159.167 66,146.5C 66.9041,130.13 68.2374,113.796 70,97.5C 71.5919,80.9094 80.7586,72.076 97.5,71C 113.126,69.2108 128.793,67.8775 144.5,67C 156.461,57.3744 168.128,47.3744 179.5,37C 185.327,32.4234 191.66,28.9234 198.5,26.5 Z M 245.5,160.5 C 252.392,162.051 254.226,166.051 251,172.5C 227.197,198.636 202.364,223.803 176.5,248C 173.697,248.755 171.03,248.422 168.5,247C 157,235.5 145.5,224 134,212.5C 132.503,201.653 136.67,198.487 146.5,203C 153.833,210 161.167,217 168.5,224C 171.03,225.422 173.697,225.755 176.5,225C 197.833,204.333 219.167,183.667 240.5,163C 242.315,162.243 243.981,161.41 245.5,160.5 Z M 129.5,353.5 C 133.514,353.334 137.514,353.501 141.5,354C 153.96,366.133 167.293,377.133 181.5,387C 186.825,389.815 192.158,392.315 197.5,394.5C 182.333,430.167 167.167,465.833 152,501.5C 143.893,488.395 135.393,475.562 126.5,463C 122.833,462.333 119.167,462.333 115.5,463C 103.841,465.4 92.1739,467.4 80.5,469C 96.9774,430.547 113.311,392.047 129.5,353.5 Z"/></g>
<g><path style="opacity:0.971" fill="#da6900" d="M 184.5,82.5 C 237.133,79.0599 276.967,99.7266 304,144.5C 321.619,181.344 321.952,218.344 305,255.5C 278.206,302.318 237.706,323.485 183.5,319C 126,308.167 91.8333,274 81,216.5C 76.7005,172.033 91.5338,135.533 125.5,107C 132.332,102.416 139.332,98.0827 146.5,94C 157.529,91.3651 161.362,95.5318 158,106.5C 111.289,131.254 91.6222,169.92 99,222.5C 108.617,260.784 132.117,286.284 169.5,299C 220.184,310.559 259.684,294.726 288,251.5C 308.748,209.571 304.748,170.237 276,133.5C 250.53,106.896 219.363,95.0622 182.5,98C 178.247,94.5796 177.413,90.4129 180,85.5C 181.409,84.2189 182.909,83.2189 184.5,82.5 Z M 245.5,160.5 C 243.981,161.41 242.315,162.243 240.5,163C 219.167,183.667 197.833,204.333 176.5,225C 173.697,225.755 171.03,225.422 168.5,224C 161.167,217 153.833,210 146.5,203C 136.67,198.487 132.503,201.653 134,212.5C 145.5,224 157,235.5 168.5,247C 171.03,248.422 173.697,248.755 176.5,248C 202.364,223.803 227.197,198.636 251,172.5C 254.226,166.051 252.392,162.051 245.5,160.5 Z"/></g>
<g><path style="opacity:0.968" fill="#da6900" d="M 239.5,145.5 C 256.503,143.023 266.169,150.19 268.5,167C 267.821,174.192 265.321,180.692 261,186.5C 236.833,212 212,236.833 186.5,261C 177.806,265.611 169.139,265.611 160.5,261C 146.333,248.167 132.833,234.667 120,220.5C 114.788,207.831 117.288,196.997 127.5,188C 139.888,182.178 150.888,184.178 160.5,194C 164.667,198.167 168.833,202.333 173,206.5C 192.138,188.362 210.972,169.862 229.5,151C 232.767,148.87 236.1,147.037 239.5,145.5 Z M 245.5,160.5 C 243.981,161.41 242.315,162.243 240.5,163C 219.167,183.667 197.833,204.333 176.5,225C 173.697,225.755 171.03,225.422 168.5,224C 161.167,217 153.833,210 146.5,203C 136.67,198.487 132.503,201.653 134,212.5C 145.5,224 157,235.5 168.5,247C 171.03,248.422 173.697,248.755 176.5,248C 202.364,223.803 227.197,198.636 251,172.5C 254.226,166.051 252.392,162.051 245.5,160.5 Z"/></g>
</svg>
