<?xml version="1.0" encoding="UTF-8"?>
<!DOCTYPE svg PUBLIC "-//W3C//DTD SVG 1.1//EN" "http://www.w3.org/Graphics/SVG/1.1/DTD/svg11.dtd">
<svg xmlns="http://www.w3.org/2000/svg" version="1.1" width="511px" height="464px" style="shape-rendering:geometricPrecision; text-rendering:geometricPrecision; image-rendering:optimizeQuality; fill-rule:evenodd; clip-rule:evenodd" xmlns:xlink="http://www.w3.org/1999/xlink">
<g><path style="opacity:0.969" fill="#da6900" d="M 138.5,-0.5 C 145.167,-0.5 151.833,-0.5 158.5,-0.5C 171.429,1.06566 184.096,4.23233 196.5,9C 201.833,13.6667 201.833,18.3333 196.5,23C 193.833,23.6667 191.167,23.6667 188.5,23C 152.113,10.9211 117.113,14.2545 83.5,33C 27.7206,67.7524 6.22057,117.586 19,182.5C 25.1933,206.883 35.1933,229.55 49,250.5C 74.5536,239.685 93.5536,246.685 106,271.5C 108.155,278.326 108.988,285.326 108.5,292.5C 141.54,291.54 157.54,307.54 156.5,340.5C 181.287,338.299 197.454,348.966 205,372.5C 205.499,378.157 205.666,383.824 205.5,389.5C 223.844,389.257 235.678,397.924 241,415.5C 242.231,423.618 241.398,431.451 238.5,439C 243.38,441.607 248.38,443.94 253.5,446C 270.692,450.581 280.026,444.081 281.5,426.5C 281.7,421.964 280.867,417.631 279,413.5C 238.721,373.221 198.387,332.887 158,292.5C 154.5,281.333 158.333,277.5 169.5,281C 209.167,320.667 248.833,360.333 288.5,400C 322.035,415.408 338.202,404.908 337,368.5C 336.71,366.048 336.044,363.715 335,361.5C 297.695,323.194 260.028,285.194 222,247.5C 219.167,237 223,233.167 233.5,236C 272.472,275.972 311.805,315.639 351.5,355C 390.501,371.77 407.001,359.27 401,317.5C 382.667,299.167 364.333,280.833 346,262.5C 343.167,252 347,248.167 357.5,251C 373.167,266.667 388.833,282.333 404.5,298C 439.053,306.454 453.553,292.954 448,257.5C 402.804,211.971 357.971,166.138 313.5,120C 310.735,118.871 308.235,117.371 306,115.5C 285.538,135.629 265.372,156.129 245.5,177C 232.17,189.221 216.503,194.221 198.5,192C 177.371,186.252 166.371,172.418 165.5,150.5C 165.722,139.333 169.222,129.333 176,120.5C 199.204,98.2949 222.038,75.7949 244.5,53C 243.224,50.7194 241.557,48.7194 239.5,47C 232.93,41.798 226.097,36.9646 219,32.5C 216.491,23.3385 219.991,19.5052 229.5,21C 239.813,26.6398 248.979,33.8064 257,42.5C 277.669,21.9213 302.502,9.08799 331.5,4C 402.118,-3.93938 455.951,22.2273 493,82.5C 501.776,99.328 507.61,116.995 510.5,135.5C 510.5,146.5 510.5,157.5 510.5,168.5C 505.016,204.468 489.682,235.468 464.5,261.5C 467.433,279.372 462.766,294.872 450.5,308C 440.738,315.358 429.738,318.191 417.5,316.5C 422.366,336.168 418.366,353.668 405.5,369C 395.841,376.78 384.841,379.78 372.5,378C 366.338,377.126 360.338,375.626 354.5,373.5C 354.805,390.44 348.805,404.607 336.5,416C 324.154,422.836 311.154,424.336 297.5,420.5C 298.964,434.277 294.964,446.11 285.5,456C 280.848,459.372 275.848,461.872 270.5,463.5C 265.833,463.5 261.167,463.5 256.5,463.5C 246.643,461.327 237.476,457.327 229,451.5C 217.645,458.996 205.479,460.496 192.5,456C 178.555,449.213 171.888,438.047 172.5,422.5C 147.713,424.701 131.546,414.034 124,390.5C 123.501,384.509 123.334,378.509 123.5,372.5C 119.818,372.665 116.152,372.499 112.5,372C 107.688,368.505 107.355,364.505 111.5,360C 117.545,358.211 123.545,356.211 129.5,354C 141.549,344.841 144.382,333.341 138,319.5C 129.593,308.255 118.759,305.088 105.5,310C 101.721,313.779 97.8874,317.613 94,321.5C 91.753,326.637 91.0863,331.97 92,337.5C 93.5033,341.838 95.0033,346.172 96.5,350.5C 95.142,357.678 91.142,359.844 84.5,357C 78.2032,349.323 75.5365,340.49 76.5,330.5C 51.6055,332.474 35.7721,321.474 29,297.5C 26.5219,284.254 29.0219,272.088 36.5,261C 16.9642,231.882 4.63085,200.049 -0.5,165.5C -0.5,154.167 -0.5,142.833 -0.5,131.5C 8.04017,76.5968 37.3735,37.0968 87.5,13C 103.927,5.81187 120.927,1.31187 138.5,-0.5 Z M 347.5,17.5 C 410.242,17.2691 455.742,44.9357 484,100.5C 501.906,145.38 497.572,188.047 471,228.5C 466.667,234.167 462.333,239.833 458,245.5C 422.196,208.029 386.03,170.862 349.5,134C 376.866,135.77 400.366,127.27 420,108.5C 422.509,99.3385 419.009,95.5052 409.5,97C 382.044,120.915 352.377,123.915 320.5,106C 316.5,103 312.5,100 308.5,97C 306.167,96.3333 303.833,96.3333 301.5,97C 278.526,119.641 255.859,142.641 233.5,166C 223.731,174.589 212.398,177.922 199.5,176C 185.181,169.868 179.347,159.034 182,143.5C 183.973,137.551 186.973,132.217 191,127.5C 220.833,99 250.667,70.5 280.5,42C 300.907,28.3664 323.24,20.1997 347.5,17.5 Z M 67.5,261.5 C 82.8071,263.643 91.1404,272.476 92.5,288C 91.2715,303.058 83.2715,311.892 68.5,314.5C 53.7285,311.892 45.7285,303.058 44.5,288C 45.7074,273.307 53.3741,264.474 67.5,261.5 Z M 162.5,355.5 C 179.048,356.435 188.382,365.101 190.5,381.5C 186.706,402.152 174.706,409.986 154.5,405C 140.805,397.588 136.305,386.421 141,371.5C 145.492,362.501 152.658,357.167 162.5,355.5 Z M 205.5,404.5 C 223.519,407.549 229.353,417.549 223,434.5C 212.333,446.5 201.667,446.5 191,434.5C 184.834,419.166 189.667,409.166 205.5,404.5 Z"/></g>
<g><path style="opacity:0.966" fill="#da6900" d="M 271.5,172.5 C 274.32,172.248 276.986,172.748 279.5,174C 297.029,191.195 314.196,208.695 331,226.5C 332.495,236.009 328.661,239.509 319.5,237C 302.333,219.833 285.167,202.667 268,185.5C 265.348,180.039 266.514,175.706 271.5,172.5 Z"/></g>
</svg>
