<?xml version="1.0" encoding="UTF-8"?>
<!DOCTYPE svg PUBLIC "-//W3C//DTD SVG 1.1//EN" "http://www.w3.org/Graphics/SVG/1.1/DTD/svg11.dtd">
<svg xmlns="http://www.w3.org/2000/svg" version="1.1" width="386px" height="450px" style="shape-rendering:geometricPrecision; text-rendering:geometricPrecision; image-rendering:optimizeQuality; fill-rule:evenodd; clip-rule:evenodd" xmlns:xlink="http://www.w3.org/1999/xlink">
<g><path style="opacity:0.985" fill="#016a08" d="M 385.5,129.5 C 385.5,153.167 385.5,176.833 385.5,200.5C 384.18,232.563 379.347,264.23 371,295.5C 356.585,344.886 327.419,382.719 283.5,409C 255.245,424.963 225.911,438.463 195.5,449.5C 194.167,449.5 192.833,449.5 191.5,449.5C 160.24,439.374 130.24,426.207 101.5,410C 45.3189,375.211 13.1523,324.711 5,258.5C 2.64522,241.403 0.811884,224.403 -0.5,207.5C -0.5,177.833 -0.5,148.167 -0.5,118.5C 0.550848,104.004 1.38418,89.3371 2,74.5C 2.19221,72.4233 2.69221,70.4233 3.5,68.5C 66.2324,45.5338 129.066,22.8672 192,0.5C 255.209,23.8533 318.376,47.3533 381.5,71C 383.188,90.5763 384.521,110.076 385.5,129.5 Z M 189.5,31.5 C 193.319,31.605 196.986,32.4383 200.5,34C 251.461,53.2649 302.461,72.4316 353.5,91.5C 355.855,115.598 356.855,139.765 356.5,164C 357.223,195.706 355.057,227.206 350,258.5C 342.242,312.229 315.742,353.729 270.5,383C 246,397.666 220.166,409.499 193,418.5C 153.544,407.192 118.044,388.692 86.5,363C 56.6574,333.813 39.1574,298.313 34,256.5C 29.7769,226.654 27.6102,196.654 27.5,166.5C 28.2168,142.163 29.0501,117.83 30,93.5C 30.2734,91.8988 30.7734,90.3988 31.5,89C 84.3628,70.0547 137.029,50.8881 189.5,31.5 Z"/></g>
<g><path style="opacity:0.991" fill="#006a08" d="M 87.5,236.5 C 87.3505,235.448 87.5172,234.448 88,233.5C 94.4294,227.577 100.263,221.243 105.5,214.5C 106.239,214.369 106.906,214.536 107.5,215C 125.014,232.681 142.681,250.181 160.5,267.5C 199.32,229.18 237.986,190.68 276.5,152C 277.167,151.333 277.833,151.333 278.5,152C 284.667,158.167 290.833,164.333 297,170.5C 297.667,171.167 297.667,171.833 297,172.5C 251.627,218.207 205.96,263.54 160,308.5C 135.339,285.006 111.172,261.006 87.5,236.5 Z"/></g>
<g><path style="opacity:0.812" fill="#006c0b" d="M 105.5,214.5 C 100.263,221.243 94.4294,227.577 88,233.5C 87.5172,234.448 87.3505,235.448 87.5,236.5C 85.9153,235.998 85.4153,234.998 86,233.5C 92.3685,226.964 98.8685,220.631 105.5,214.5 Z"/></g>
</svg>
