<?xml version="1.0" encoding="UTF-8"?>
<!DOCTYPE svg PUBLIC "-//W3C//DTD SVG 1.1//EN" "http://www.w3.org/Graphics/SVG/1.1/DTD/svg11.dtd">
<svg xmlns="http://www.w3.org/2000/svg" version="1.1" width="750px" height="642px" style="shape-rendering:geometricPrecision; text-rendering:geometricPrecision; image-rendering:optimizeQuality; fill-rule:evenodd; clip-rule:evenodd" xmlns:xlink="http://www.w3.org/1999/xlink">
<g><path style="opacity:0.985" fill="#016a08" d="M 383.5,-0.5 C 392.833,-0.5 402.167,-0.5 411.5,-0.5C 440.698,5.18165 465.198,19.1816 485,41.5C 503.608,64.3607 518.941,89.3607 531,116.5C 553.018,156.185 583.518,187.685 622.5,211C 634.355,217.93 647.021,222.596 660.5,225C 670.723,230.295 673.223,238.128 668,248.5C 657.857,258.975 647.357,269.142 636.5,279C 598.641,307.859 555.974,325.859 508.5,333C 472.589,339.202 436.589,339.869 400.5,335C 353.07,327.204 312.57,306.371 279,272.5C 246.408,234.471 234.908,190.804 244.5,141.5C 215.346,145.204 187.68,153.704 161.5,167C 144.695,167.906 139.195,160.406 145,144.5C 151.137,139.512 157.971,135.679 165.5,133C 194.773,121.265 225.107,113.765 256.5,110.5C 270.191,84.6327 288.191,62.1327 310.5,43C 327.061,29.1087 344.728,16.7754 363.5,6C 369.989,2.89149 376.656,0.724828 383.5,-0.5 Z M 394.5,27.5 C 417.628,28.2373 437.628,36.404 454.5,52C 466.91,64.0696 477.41,77.5696 486,92.5C 504.45,134.272 529.95,171.105 562.5,203C 581.891,220.541 603.557,234.707 627.5,245.5C 628.521,246.002 628.688,246.668 628,247.5C 607.675,266.126 584.509,280.293 558.5,290C 500.49,310.757 441.49,314.423 381.5,301C 347.519,291.61 319.019,273.777 296,247.5C 271.189,215.259 264.355,179.592 275.5,140.5C 341.046,138.512 398.38,159.012 447.5,202C 455.496,208.996 463.163,216.33 470.5,224C 479.826,228.667 486.993,226.501 492,217.5C 492.867,213.044 492.534,208.711 491,204.5C 437.373,145.751 370.539,114.084 290.5,109.5C 314.315,75.5844 344.648,49.0844 381.5,30C 385.965,29.1259 390.298,28.2926 394.5,27.5 Z"/></g>
<g><path style="opacity:0.984" fill="#016a08" d="M 749.5,419.5 C 749.5,425.167 749.5,430.833 749.5,436.5C 748.653,441.871 746.986,447.038 744.5,452C 639.771,514.69 535.437,577.856 431.5,641.5C 399.833,641.5 368.167,641.5 336.5,641.5C 271.132,613.739 205.632,586.072 140,558.5C 140.658,564.912 138.824,570.412 134.5,575C 125.198,579.985 115.865,584.985 106.5,590C 67.9897,603.913 32.323,598.747 -0.5,574.5C -0.5,497.5 -0.5,420.5 -0.5,343.5C 28.1563,324.415 59.1563,318.915 92.5,327C 109.785,333.449 124.118,343.949 135.5,358.5C 180.163,338.239 226.829,331.072 275.5,337C 315.851,342.747 348.018,361.913 372,394.5C 407.724,388.619 443.557,388.119 479.5,393C 506.045,396.938 528.878,408.105 548,426.5C 589.229,405.802 630.396,384.969 671.5,364C 693.452,362.068 713.118,367.735 730.5,381C 741.012,391.855 747.345,404.689 749.5,419.5 Z M 61.5,351.5 C 82.3092,350.822 98.8092,358.822 111,375.5C 111.667,434.833 111.667,494.167 111,553.5C 89.117,569.444 65.2837,572.944 39.5,564C 35.6371,562.819 32.1371,560.986 29,558.5C 28.3333,492.5 28.3333,426.5 29,360.5C 39.45,355.682 50.2833,352.682 61.5,351.5 Z M 229.5,363.5 C 256.987,361.525 283.321,366.025 308.5,377C 327.233,387.066 342.067,401.233 353,419.5C 354.731,421.617 356.898,423.117 359.5,424C 377.451,422.265 395.451,420.599 413.5,419C 439.18,416.941 464.513,418.941 489.5,425C 504.278,428.793 516.778,436.293 527,447.5C 529.125,462.452 522.959,471.618 508.5,475C 439.833,475.333 371.167,475.667 302.5,476C 292.638,480.24 289.805,487.407 294,497.5C 296.24,500.402 299.073,502.569 302.5,504C 371.833,504.667 441.167,504.667 510.5,504C 538.578,499.419 554.245,482.919 557.5,454.5C 598.011,433.744 638.678,413.244 679.5,393C 693.867,392.002 705.7,396.836 715,407.5C 719.684,415.234 721.35,423.567 720,432.5C 620.583,492.792 521.083,552.959 421.5,613C 395.833,613.667 370.167,613.667 344.5,613C 276.459,584.598 208.459,556.098 140.5,527.5C 139.333,481.17 139.167,434.837 140,388.5C 168.43,374.77 198.264,366.437 229.5,363.5 Z"/></g>
</svg>
