<?xml version="1.0" encoding="UTF-8"?>
<!DOCTYPE svg PUBLIC "-//W3C//DTD SVG 1.1//EN" "http://www.w3.org/Graphics/SVG/1.1/DTD/svg11.dtd">
<svg xmlns="http://www.w3.org/2000/svg" version="1.1" width="651px" height="466px" style="shape-rendering:geometricPrecision; text-rendering:geometricPrecision; image-rendering:optimizeQuality; fill-rule:evenodd; clip-rule:evenodd" xmlns:xlink="http://www.w3.org/1999/xlink">
<g><path style="opacity:0.982" fill="#da6900" d="M 398.5,-0.5 C 399.5,-0.5 400.5,-0.5 401.5,-0.5C 437.499,1.41813 465.999,17.0848 487,46.5C 506.625,76.9369 519.459,110.104 525.5,146C 522.744,159.213 515.077,163.213 502.5,158C 501.333,156.833 500.167,155.667 499,154.5C 492.905,126.214 483.238,99.2137 470,73.5C 447.848,35.3466 415.348,21.8466 372.5,33C 335.254,45.6181 303.254,66.2847 276.5,95C 270.833,98.3333 265.167,98.3333 259.5,95C 232.831,65.6659 200.498,45.3326 162.5,34C 128.869,26.1581 99.2022,33.8248 73.5,57C 22.8458,106.448 15.3458,161.948 51,223.5C 75.178,262.589 104.678,297.422 139.5,328C 177.508,361.176 218.175,390.676 261.5,416.5C 275.992,409.09 289.992,400.924 303.5,392C 302.137,390.055 301.303,387.888 301,385.5C 296.6,352.436 299.6,320.103 310,288.5C 327.427,244.409 358.593,214.575 403.5,199C 471.501,177.849 537.167,183.515 600.5,216C 622.462,228.127 639.129,245.294 650.5,267.5C 650.5,271.167 650.5,274.833 650.5,278.5C 649.03,280.151 647.697,281.985 646.5,284C 637.809,286.845 629.475,290.512 621.5,295C 606.57,306.984 593.07,320.484 581,335.5C 562.673,359.473 546.339,384.806 532,411.5C 512.132,433.517 488.299,449.684 460.5,460C 452.126,462.305 443.793,464.139 435.5,465.5C 428.833,465.5 422.167,465.5 415.5,465.5C 390.032,462.103 367.032,452.603 346.5,437C 338.025,430.193 329.859,423.026 322,415.5C 302.24,427.968 281.74,439.301 260.5,449.5C 189.341,409.54 125.841,359.54 70,299.5C 44.4555,271.102 24.4555,239.102 10,203.5C 4.11784,186.84 0.617837,169.84 -0.5,152.5C -0.5,150.167 -0.5,147.833 -0.5,145.5C 1.38863,114.341 11.8886,86.3415 31,61.5C 75.1466,2.79629 131.313,-12.3704 199.5,16C 225.071,27.5883 247.904,43.0883 268,62.5C 296.8,35.1748 330.3,15.6748 368.5,4C 378.536,1.71371 388.536,0.213712 398.5,-0.5 Z M 462.5,215.5 C 501.439,213.045 538.772,219.545 574.5,235C 590.144,241.985 603.478,251.985 614.5,265C 594.997,277.848 577.83,293.348 563,311.5C 542.642,337.208 524.642,364.542 509,393.5C 492.363,411.468 472.53,424.634 449.5,433C 422.768,439.895 397.768,435.895 374.5,421C 364.453,414.789 355.453,407.289 347.5,398.5C 379.861,374.992 410.027,348.659 438,319.5C 445.712,310.79 453.045,301.79 460,292.5C 464.196,282.454 461.362,275.288 451.5,271C 446.389,269.889 441.722,270.889 437.5,274C 406.675,313.214 370.675,346.714 329.5,374.5C 324.503,338.314 331.337,304.648 350,273.5C 371.709,245.182 400.209,227.349 435.5,220C 444.619,218.344 453.619,216.844 462.5,215.5 Z"/></g>
</svg>
