<?xml version="1.0" encoding="UTF-8"?>
<!DOCTYPE svg PUBLIC "-//W3C//DTD SVG 1.1//EN" "http://www.w3.org/Graphics/SVG/1.1/DTD/svg11.dtd">
<svg xmlns="http://www.w3.org/2000/svg" version="1.1" width="714px" height="603px" style="shape-rendering:geometricPrecision; text-rendering:geometricPrecision; image-rendering:optimizeQuality; fill-rule:evenodd; clip-rule:evenodd" xmlns:xlink="http://www.w3.org/1999/xlink">
<g><path style="opacity:0.986" fill="#006a08" d="M 271.5,-0.5 C 336.833,-0.5 402.167,-0.5 467.5,-0.5C 487.378,42.633 507.545,85.633 528,128.5C 532.126,122.03 537.959,119.863 545.5,122C 553.305,125.781 556.138,131.947 554,140.5C 533.667,172.5 513.333,204.5 493,236.5C 489.943,239.945 486.11,241.612 481.5,241.5C 442.874,232.093 404.54,221.593 366.5,210C 360.13,204.081 358.963,197.247 363,189.5C 367.91,184.364 373.743,182.364 380.5,183.5C 372.755,168.341 364.755,153.341 356.5,138.5C 330.843,166.992 305.343,195.659 280,224.5C 248.5,199 217,173.5 185.5,148C 182.282,145.223 178.615,143.223 174.5,142C 168.13,136.081 166.963,129.247 171,121.5C 205.09,81.2508 238.59,40.5842 271.5,-0.5 Z M 331.5,28.5 C 370.569,27.1678 409.736,27.1678 449,28.5C 468.508,71.6814 488.675,114.515 509.5,157C 497.78,174.949 485.947,192.782 474,210.5C 455.59,205.106 437.09,200.106 418.5,195.5C 415.232,186.96 411.398,178.627 407,170.5C 382.059,122.947 356.892,75.6132 331.5,28.5 Z M 285.5,28.5 C 290.214,28.1734 294.88,28.5067 299.5,29.5C 313.961,56.2539 328.294,83.0873 342.5,110C 320.294,134.537 298.461,159.37 277,184.5C 257.5,169 238,153.5 218.5,138C 213.802,134.299 209.469,130.299 205.5,126C 231.987,93.3467 258.654,60.8467 285.5,28.5 Z"/></g>
<g><path style="opacity:0.986" fill="#016a08" d="M 603.5,210.5 C 611.144,209.428 616.977,212.095 621,218.5C 642.474,264.585 664.14,310.585 686,356.5C 687.15,358.754 687.484,361.087 687,363.5C 660.24,421.52 633.074,479.353 605.5,537C 557.833,537.333 510.167,537.667 462.5,538C 467.425,547.633 465.091,554.966 455.5,560C 448.166,561.779 442.333,559.612 438,553.5C 418.333,521.833 398.667,490.167 379,458.5C 377.959,453.56 378.626,448.894 381,444.5C 406.185,414.987 431.685,385.82 457.5,357C 473.108,353.392 479.942,359.559 478,375.5C 477.028,377.305 475.861,378.972 474.5,380.5C 475.667,380.833 476.833,381.167 478,381.5C 494.061,380.589 510.061,379.589 526,378.5C 512.615,345.713 498.615,313.046 484,280.5C 482.686,277.911 482.019,275.244 482,272.5C 520.09,253.539 558.256,234.705 596.5,216C 598.54,213.664 600.873,211.831 603.5,210.5 Z M 599.5,246.5 C 600.5,246.5 601.5,246.5 602.5,246.5C 619.436,284.374 636.936,322.041 655,359.5C 654.696,364.137 653.196,368.47 650.5,372.5C 619.535,374.741 588.535,376.408 557.5,377.5C 544.923,347.176 531.923,317.009 518.5,287C 545.561,273.47 572.561,259.97 599.5,246.5 Z M 634.5,402.5 C 635.376,402.369 636.043,402.702 636.5,403.5C 620.167,438.167 603.833,472.833 587.5,507.5C 539.837,508.667 492.17,508.833 444.5,508C 433.167,490.333 421.833,472.667 410.5,455C 423.333,440.167 436.167,425.333 449,410.5C 450.4,411.116 451.9,411.449 453.5,411.5C 513.992,408.584 574.326,405.584 634.5,402.5 Z"/></g>
<g><path style="opacity:0.985" fill="#016a08" d="M 198.5,221.5 C 204.731,220.853 209.898,222.853 214,227.5C 229,260.833 244,294.167 259,327.5C 264.539,340.422 260.539,348.422 247,351.5C 239.861,350.936 235.194,347.269 233,340.5C 226.069,356.459 219.236,372.459 212.5,388.5C 250.805,390.687 289.138,392.353 327.5,393.5C 328.239,436.164 329.073,478.83 330,521.5C 333.209,530.877 330.376,537.711 321.5,542C 267.5,542.667 213.5,542.667 159.5,542C 118.643,493.777 78.1428,445.277 38,396.5C 36.2491,394.788 35.5825,392.788 36,390.5C 56.0384,348.257 76.205,306.09 96.5,264C 82.2251,262.73 77.0584,255.23 81,241.5C 83.3649,238.131 86.5315,235.964 90.5,235C 126.686,230.81 162.686,226.31 198.5,221.5 Z M 192.5,251.5 C 200.866,268.903 208.866,286.569 216.5,304.5C 192.428,362.307 168.094,419.974 143.5,477.5C 118.481,447.965 93.8144,418.131 69.5,388C 89.5302,345.439 109.697,302.939 130,260.5C 130.75,259.874 131.584,259.374 132.5,259C 152.686,256.81 172.686,254.31 192.5,251.5 Z M 199.5,418.5 C 232.852,419.056 266.186,420.056 299.5,421.5C 299.68,452.169 300.013,482.835 300.5,513.5C 257.832,513.667 215.165,513.5 172.5,513C 169.833,509.667 167.167,506.333 164.5,503C 176.591,474.988 188.258,446.821 199.5,418.5 Z"/></g>
</svg>
